<?xml version="1.0" encoding="UTF-8"?>
<svg width="84px" height="33px" viewBox="0 0 84 33" version="1.1" xmlns="http://www.w3.org/2000/svg" xmlns:xlink="http://www.w3.org/1999/xlink">
    <title>E4F16D11-E2FC-4F24-9631-23D29D97D0B6@1x</title>
    <defs>
        <path d="M16.5029497,18.7606994 C20.2391284,18.7606994 23.2677107,21.7892817 23.2677107,25.5254604 C23.2677107,29.2616392 20.2391284,32.2902214 16.5029497,32.2902214 C12.766771,32.2902214 9.73818868,29.2616392 9.73818868,25.5254604 C9.73818868,21.7892817 12.766771,18.7606994 16.5029497,18.7606994 Z M68.1369744,19.7828025 C71.5602113,19.7828025 74.3332243,22.5575541 74.3332243,25.9790523 C74.3332243,29.4022892 71.5602113,32.1770408 68.1369744,32.1770408 C64.7154762,32.1770408 61.9407246,29.4022892 61.9407246,25.9790523 C61.9407246,22.5575541 64.7154762,19.7828025 68.1369744,19.7828025 Z M42.6951447,1.62243557 C46.9285533,1.69545535 52.3859125,6.0418708 55.3171351,8.45152353 C57.2821703,10.0673552 55.6595193,10.1882053 55.2453247,10.194079 L55.1895083,10.1942416 C55.1822235,10.1941734 55.1760108,10.1940757 55.1709649,10.1939757 L55.1554485,10.1935668 L35.2697285,10.144887 L34.7620672,1.58244855 C37.3264523,1.57549428 40.2246421,1.58244855 42.6951447,1.62243557 Z M33.2130047,1.58766424 L33.7189275,10.1414099 L23.4353085,10.1153314 C21.7002194,10.1101157 21.0795513,8.7922825 21.0795513,8.7922825 L20.1702812,7.27277566 C19.3957178,5.97986194 20.2561792,5.16761527 20.5281308,4.9553263 L20.5842628,4.91363463 C20.5975487,4.90432623 20.6049227,4.89963282 20.6049227,4.89963282 C23.0893338,3.7695648 25.3564241,2.79596774 26.7455385,2.21007094 C26.7455385,2.21007094 28.5119217,1.6154813 30.1600825,1.60504991 C30.9928557,1.59983421 32.0481654,1.59287994 33.2130047,1.58766424 Z M76.8614473,14.2461646 C74.4935201,12.7718605 57.5285913,6.87290544 57.5285913,6.87290544 C57.5285913,6.87290544 49.43035,0.162039976 42.7333931,0.0490331737 C37.7732638,-0.034418003 31.2293007,0.00904615156 28.1711628,0.0316475119 C26.6047146,0.0455560414 24.8835341,0.622760014 24.8835341,0.622760014 C21.5715655,1.85366487 13.8645017,4.8439987 10.0014076,7.40490669 L1.92924482,8.76098831 C1.92924482,8.76098831 0.715725624,8.67232144 0.710509925,10.1466256 C0.708771359,10.7794636 0.705294227,11.6191911 0.564470366,12.6484223 C0.223711394,15.150219 -1.48182203,22.3026803 3.40702607,25.3712496 C5.04301685,26.3987422 6.73290318,27.076783 8.26457999,27.5322874 C8.10637046,26.8855408 7.99857936,26.2196699 7.99857936,25.5242434 C7.99857936,20.837069 11.8147321,17.0226548 16.5036451,17.0226548 C21.1908195,17.0226548 25.0069723,20.837069 25.0069723,25.5242434 C25.0069723,26.5586903 24.7931287,27.5375031 24.4541083,28.4537275 L60.6493176,28.4919759 C60.3798399,27.6974512 60.2025061,26.8629394 60.2025061,25.9797478 C60.2025061,21.6037767 63.7630896,18.0449317 68.1373222,18.0449317 C72.5132932,18.0449317 76.0721382,21.6037767 76.0721382,25.9797478 C76.0721382,26.7029913 75.9434843,27.3914635 75.7609349,28.0555958 L78.7495301,27.9704061 C78.7495301,27.9704061 84,27.5166403 84,23.1702248 C84,16.1464175 78.9911908,15.5726906 76.8614473,14.2461646 L76.8614473,14.2461646 Z" id="path-1"></path>
    </defs>
    <g id="RCT---Emissions-Calculator-" stroke="none" stroke-width="1" fill="none" fill-rule="evenodd">
        <g id="Authenticated–no-error_equivalencies-1" transform="translate(-511.000000, -879.000000)">
            <g id="Group-28" transform="translate(80.000000, 766.000000)">
                <g id="Group-32" transform="translate(431.000000, 88.000000)">
                    <g id="Icons/base/nature/tree-Copy" transform="translate(-0.000000, 25.421053)">
                        <mask id="mask-2" fill="white">
                            <use xlink:href="#path-1"></use>
                        </mask>
                        <use id="Mask" fill="#06ABC8" xlink:href="#path-1"></use>
                        <g id="Icon-Color" mask="url(#mask-2)" fill="#00789E">
                            <g transform="translate(0.000000, -25.421053)" id="Rectangle">
                                <rect x="0" y="0" width="84" height="84"></rect>
                            </g>
                        </g>
                    </g>
                </g>
            </g>
        </g>
    </g>
</svg>