<svg xmlns="http://www.w3.org/2000/svg" xmlns:xlink="http://www.w3.org/1999/xlink" viewBox="0 0 76 76"><defs><path id="icon-positive-calendar-month-a" d="M63.7956976,60.5206537 L70.9378439,60.5206537 C72.2168683,60.5206537 73.4236,60.2073854 74.4894537,59.6512878 C73.7943317,60.8672878 72.9305268,62.0239707 71.9295512,63.0842634 L62.5296488,72.0578244 C61.8159902,72.7028976 60.0457463,74.2191902 57.5952098,75.5538244 C58.1012585,74.5287512 58.386722,73.373922 58.386722,72.1505073 L58.386722,65.9240683 C58.386722,62.945239 60.8150146,60.5206537 63.7956976,60.5206537 Z M20.2654927,15.9333073 C18.7251024,15.9333073 17.4775902,14.6839415 17.4775902,13.1435512 L17.4775902,4.64267317 C17.4775902,3.10228293 18.7251024,1.85291707 20.2654927,1.85291707 C21.8058829,1.85291707 23.0552488,3.10228293 23.0552488,4.64267317 L23.0552488,13.1435512 C23.0552488,14.6839415 21.8058829,15.9333073 20.2654927,15.9333073 Z M57.1056585,38.8467512 L57.1056585,27.2020683 L68.6113171,27.2020683 L68.6113171,38.8467512 L57.1056585,38.8467512 Z M39.6108293,42.5540683 L53.3983415,42.5540683 L53.3983415,54.6732878 L39.6108293,54.6732878 L39.6108293,42.5540683 Z M22.116,70.2125073 L22.116,58.3806049 L35.9035122,58.3806049 L35.9035122,70.2125073 L22.116,70.2125073 Z M5.8742439,70.2125073 L5.8742439,58.3806049 L18.4086829,58.3806049 L18.4086829,70.2125073 L5.8742439,70.2125073 Z M5.8742439,54.6732878 L5.8742439,42.5540683 L18.4086829,42.5540683 L18.4086829,54.6732878 L5.8742439,54.6732878 Z M5.8742439,38.8467512 L5.8742439,27.2020683 L18.4086829,27.2020683 L18.4086829,38.8467512 L5.8742439,38.8467512 Z M22.116,54.6732878 L22.116,42.5540683 L35.9035122,42.5540683 L35.9035122,54.6732878 L22.116,54.6732878 Z M22.116,38.8467512 L22.116,27.2020683 L35.9035122,27.2020683 L35.9035122,38.8467512 L22.116,38.8467512 Z M39.6108293,38.8467512 L39.6108293,27.2020683 L53.3964878,27.2020683 L53.3964878,38.8467512 L39.6108293,38.8467512 Z M69.9478049,6.82850732 C72.4558049,6.82850732 74.4892683,8.86197073 74.4892683,11.3699707 L74.4892683,56.5139707 L74.4521951,56.5213854 L74.4521951,56.6010927 L73.1157073,57.207239 C72.3779512,57.5408976 71.5827317,57.7114341 70.7541463,57.7114341 L68.7466341,57.7114341 L68.6113171,57.7410927 L68.6113171,42.5540683 L57.1056585,42.5540683 L57.1056585,58.3806049 L39.6108293,58.3806049 L39.6108293,70.2125073 L55.6060488,70.2125073 L55.6060488,72.1514341 C55.6060488,72.9151415 55.4355122,73.6473366 55.1018537,74.3257756 L54.4957073,75.5547512 L4.54146341,75.5547512 C2.03346341,75.5547512 0,73.5212878 0,71.0132878 L0,11.3699707 C0,8.86197073 2.03346341,6.82850732 4.54146341,6.82850732 L14.3436098,6.82850732 L14.3436098,12.5266537 C14.3436098,15.7687024 16.9720976,18.3971902 20.216,18.3971902 C23.4580488,18.3971902 26.0865366,15.7687024 26.0865366,12.5266537 L26.0865366,6.82850732 L48.3990244,6.82850732 L48.3990244,12.5266537 C48.3990244,15.7687024 51.0275122,18.3971902 54.2714146,18.3971902 C57.5134634,18.3971902 60.1419512,15.7687024 60.1419512,12.5266537 L60.1419512,6.82850732 L69.9478049,6.82850732 Z M54.3210927,15.9333073 C52.7807024,15.9333073 51.5331902,14.6839415 51.5331902,13.1435512 L51.5331902,4.64267317 C51.5331902,3.10228293 52.7807024,1.85291707 54.3210927,1.85291707 C55.8614829,1.85291707 57.1108488,3.10228293 57.1108488,4.64267317 L57.1108488,13.1435512 C57.1108488,14.6839415 55.8614829,15.9333073 54.3210927,15.9333073 Z"/></defs><use fill="#00789E" fill-rule="evenodd" xlink:href="#icon-positive-calendar-month-a"/></svg>