<svg xmlns="http://www.w3.org/2000/svg" xmlns:xlink="http://www.w3.org/1999/xlink" viewBox="0 0 76 76"><defs><path id="icon-positive-wagon-luggage-a" d="M17.6991487,45.0809887 C20.75588,45.0809887 23.2341367,47.5592453 23.2341367,50.6159767 C23.2341367,53.6727081 20.75588,56.1509648 17.6991487,56.1509648 C14.6424173,56.1509648 12.1625493,53.6727081 12.1625493,50.6159767 C12.1625493,47.5592453 14.6424173,45.0809887 17.6991487,45.0809887 Z M65.8949564,45.0809887 C68.9516878,45.0809887 71.4299445,47.5592453 71.4299445,50.6159767 C71.4299445,53.6727081 68.9516878,56.1509648 65.8949564,56.1509648 C62.838225,56.1509648 60.358357,53.6727081 60.358357,50.6159767 C60.358357,47.5592453 62.838225,45.0809887 65.8949564,45.0809887 Z M36.5774057,39.2524126 L35.4623514,32.7699506 C37.0994832,32.8134571 38.5948162,32.9488105 40.0273066,33.1808449 C41.9770404,33.4998923 43.7398575,33.98652 45.4156618,34.6729552 C48.1887955,35.8073458 50.8185191,37.4412549 53.3644525,39.0203782 C53.7930716,39.2862509 54.2233021,39.5537351 54.6519213,39.8179965 L36.5774057,39.2524126 Z M24.6614707,38.8801907 L24.6614707,32.9552559 C26.1068519,32.9117494 27.6005736,32.8746884 29.1007406,32.8472954 C29.6937175,32.8376273 30.2947512,32.8215138 30.8732259,32.8070117 C31.931883,32.7796187 33.0243785,32.7522258 34.0910923,32.7522258 L34.3440743,32.7522258 L35.455906,39.2169629 L24.6614707,38.8801907 Z M19.6807872,31.727407 C18.6205187,31.7660794 17.5602503,31.8256994 16.4999818,31.8756512 L16.4999818,29.8969131 L25.2173866,29.8969131 L26.7642828,29.8969131 L32.2605984,29.8969131 L32.2605984,31.377744 C31.1987186,31.3986916 30.1384502,31.4325299 29.0765704,31.4518661 C25.9424942,31.5082634 22.8116407,31.6130011 19.6807872,31.727407 Z M23.5641412,38.844741 L5.71360334,38.2856025 C6.04876419,37.9601097 6.37747964,37.6281716 6.69652699,37.3042902 C7.76968624,36.2117947 8.78322554,35.1805306 9.98207011,34.4812046 C11.4177832,33.6433024 13.1290371,33.4451064 14.614702,33.3613161 C16.2582793,33.2678578 17.9792013,33.1872903 19.7323504,33.1228363 C20.9279723,33.0793298 22.2186638,33.0326007 23.5641412,32.9890942 L23.5641412,38.844741 Z M74.4038525,42.7796583 C73.0390388,41.3793949 71.3310076,41.0442341 70.1950057,40.8009202 C70.1950057,40.8009202 66.9964754,39.8308873 62.5845985,39.2024607 C58.1743329,38.5708114 55.6058406,38.7641735 55.6058406,38.7641735 C52.4588736,36.8386099 49.3715266,34.7841384 45.9441846,33.3806523 C44.0959659,32.6249291 42.1913499,32.1189651 40.2512843,31.8031405 C38.6463794,31.5421017 37.015693,31.409971 35.3721158,31.3696873 C34.8081432,31.3567964 34.2457819,31.3551851 33.6818094,31.3584078 L33.6818094,29.8969131 L35.2367623,29.8969131 C36.0537169,29.8969131 36.7159818,29.2346482 36.7159818,28.4176936 L36.7159818,21.4792195 C36.7159818,20.6622649 36.0537169,20 35.2367623,20 L25.2173866,20 C24.400432,20 23.7397784,20.6622649 23.7397784,21.4792195 L23.7397784,23.1244081 L14.0168911,23.1244081 C13.2015479,23.1244081 12.5392829,23.786673 12.5392829,24.6036276 L12.5779553,28.4176936 C12.5779553,29.2346482 13.2402203,29.8969131 14.0571749,29.8969131 L15.0771596,29.8969131 L15.0771596,31.9417166 C14.8966883,31.9513847 14.7162171,31.9578301 14.5357459,31.9674982 C12.7116974,32.0690133 10.8795922,32.3413314 9.27952141,33.2759146 C7.45225025,34.3410171 6.06648905,36.0216554 4.55343118,37.4670365 C4.23438383,37.7715817 3.90889108,38.0712929 3.59306644,38.3774494 C2.70198976,39.2669147 2.47801207,39.7438744 2.42967157,40.2675632 L2.08967667,44.1928124 C2.12351502,44.8373525 1.9430438,45.1161161 1.70134126,45.2111858 C0.550837195,45.7622675 0.0126462171,45.929848 0.00620081613,46.6178945 C0.00620081613,48.5853531 -0.0969255988,49.049422 0.537946393,49.4280893 C0.537946393,49.4280893 1.70134126,50.4464627 2.91307664,50.7864576 C4.12481201,51.1264525 10.8151382,52.191555 10.8151382,52.191555 L10.9166532,52.191555 C10.7990247,51.685591 10.7345707,51.1586795 10.7345707,50.6156544 C10.7345707,46.7693614 13.8525334,43.6513987 17.6988264,43.6513987 C21.5451194,43.6513987 24.6614707,46.7693614 24.6614707,50.6156544 C24.6614707,51.1586795 24.5986281,51.685591 24.4809995,52.191555 L24.9692386,52.191555 L58.9010519,52.191555 L59.108916,52.1818869 C58.9945102,51.6791456 58.9316675,51.1554568 58.9316675,50.6156544 C58.9316675,46.7693614 62.0480189,43.6513987 65.8943119,43.6513987 C69.7406049,43.6513987 72.8585676,46.7693614 72.8585676,50.6156544 C72.8585676,50.9282564 72.8360087,51.2360243 72.7957249,51.5389581 C74.0541895,51.1715703 75.3948329,50.7703441 75.818618,49.6101719 C76.2424031,48.4451657 75.9829757,44.4006766 74.4038525,42.7796583 L74.4038525,42.7796583 Z"/></defs><use fill="#00789E" fill-rule="evenodd" xlink:href="#icon-positive-wagon-luggage-a"/></svg>