<svg xmlns="http://www.w3.org/2000/svg" xmlns:xlink="http://www.w3.org/1999/xlink" viewBox="0 0 76 76"><defs><path id="icon-positive-car-a" d="M13.0261586,39.1370369 C16.0907865,39.1370369 18.5766797,41.6213617 18.5766797,44.687558 C18.5766797,47.752186 16.0907865,50.2365108 13.0261586,50.2365108 C9.96153065,50.2365108 7.47563746,47.752186 7.47563746,44.687558 C7.47563746,41.6213617 9.96153065,39.1370369 13.0261586,39.1370369 Z M60.7838523,38.221099 C64.1307899,38.221099 66.8425308,40.9328399 66.8425308,44.2797774 C66.8425308,47.6251466 64.1307899,50.3384559 60.7838523,50.3384559 C57.4384831,50.3384559 54.7251738,47.6251466 54.7251738,44.2797774 C54.7251738,40.9328399 57.4384831,38.221099 60.7838523,38.221099 Z M52.4119601,29.5643877 C52.4119601,29.5643877 47.9216685,30.4458211 44.3316309,31.2472668 L46.5650138,26.8902881 L46.6434332,26.8887197 C46.6434332,26.8887197 50.36051,26.4291823 52.4119601,28.0226634 C52.4119601,28.0226634 55.0092087,29.5141993 52.4119601,29.5643877 Z M26.4426103,32.4549247 C26.4426103,32.4549247 31.3689135,27.8187731 36.7657327,27.0534003 L45.3997024,26.9106771 L42.673846,31.6283848 C42.0480597,31.7773815 41.4850088,31.916968 41.0427237,32.0377338 C37.9592751,32.8877994 25.5988182,33.6312148 26.4426103,32.4549247 Z M75.4939096,34.564405 C75.3684386,33.6453303 75.3653018,32.8909362 75.3637334,32.3247486 C75.3590283,31.0057352 74.2721362,31.0841546 74.2721362,31.0841546 L67.0418727,31.0841546 C62.5625599,28.1089247 52.3037414,25.706156 52.3037414,25.706156 C52.3037414,25.706156 43.7230968,25.6057792 37.7271538,25.706156 C31.7312109,25.8081011 24.4774216,31.8165912 24.4774216,31.8165912 C12.7035414,30.8363494 4.84278643,34.5314689 2.14672941,35.9163545 C0.904567014,36.5546879 1.31862115,37.8470387 1.31862115,37.8470387 C1.26059083,38.452436 1.03631151,39.2381979 0.446598049,40.1666829 C-0.979065612,42.4063393 1.46448112,43.4242224 1.46448112,43.4242224 C1.46448112,43.4242224 -0.0631276823,44.3417287 0.446598049,45.7673924 C0.899861853,47.0362174 5.6583476,47.7372863 6.69818809,47.8753043 C6.21041978,46.9123148 5.9092895,45.8379698 5.9092895,44.6883422 C5.9092895,40.7642383 9.10252516,37.5694342 13.0266291,37.5694342 C16.950733,37.5694342 20.1439687,40.7642383 20.1439687,44.6883422 C20.1439687,45.7046569 19.9212578,46.6660781 19.5354346,47.5428063 L53.6243231,47.5114386 C53.5176728,47.0958161 53.4361167,46.5782484 53.3843599,46.049702 C53.2479103,45.4788092 53.1569438,44.8906641 53.1569438,44.2805616 C53.1569438,40.0741481 56.5775956,36.6534963 60.7840091,36.6534963 C64.9904227,36.6534963 68.4110745,40.0741481 68.4110745,44.2805616 C68.4110745,45.0192718 68.2730564,45.7187724 68.0754397,46.3947471 C68.0268197,46.8072329 67.9609474,47.193056 67.8778229,47.4988915 L68.5694815,47.4988915 L72.9484177,44.7495093 C77.3273538,42.0001271 75.799745,36.8056298 75.4939096,34.564405"/></defs><use fill="#00789E" fill-rule="evenodd" xlink:href="#icon-positive-car-a"/></svg>