<svg xmlns="http://www.w3.org/2000/svg" viewBox="0 0 64 64"><path fill="#fff" d="M32,0C14.327,0,0,14.327,0,32s14.327,32,32,32,32-14.327,32-32S49.673,0,32,0Zm4.924,48.251c.027,2.632-2.085,4.787-4.717,4.813-.07,0-.141,0-.211-.003-2.63,.088-4.833-1.973-4.921-4.603-.002-.069-.003-.138-.002-.208v-.112c-.029-2.628,2.079-4.782,4.708-4.811,.072,0,.144,0,.215,.003,2.629-.091,4.834,1.966,4.925,4.595,.002,.071,.003,.142,.003,.214v.112Zm.115-32.43l-2.435,21.287c-.093,1.439-1.335,2.529-2.774,2.436-1.309-.085-2.351-1.127-2.436-2.436l-2.433-21.287c-.168-1.637,.733-2.886,2.268-2.886h5.539c1.534,.004,2.436,1.249,2.27,2.886Z"/></svg>