<svg xmlns="http://www.w3.org/2000/svg" xmlns:xlink="http://www.w3.org/1999/xlink" viewBox="0 0 76 76"><defs><path id="icon-positive-gasoline-a" d="M35.93269,21.30736 C35.93269,23.06676 34.50579,24.49366 32.74639,24.49366 L16.85099,24.49366 C15.09159,24.49366 13.66469,23.06676 13.66469,21.30736 L13.66469,7.96366 C13.66469,6.20426 15.09159,4.77736 16.85099,4.77736 L32.74639,4.77736 C34.50579,4.77736 35.93269,6.20426 35.93269,7.96366 L35.93269,21.30736 Z M56.19619,23.64626 C55.10749,23.64626 54.22209,22.76086 54.22209,21.67026 L54.22209,14.15576 C54.81679,14.72956 55.38489,15.28056 55.88079,15.77836 C58.12089,18.02036 57.86629,21.37386 57.87199,21.41376 L57.87199,23.64626 L56.19619,23.64626 Z M65.62969,62.29796 C65.58599,62.17256 61.10769,49.72186 61.10579,44.51966 L61.10579,21.51826 C61.17799,20.06856 60.97089,16.47566 58.16839,13.49076 C55.19489,10.31966 49.68489,5.51266 49.45499,5.30366 C48.79379,4.70516 47.77159,4.75456 47.17119,5.41576 C46.57269,6.07696 46.62019,7.10106 47.28519,7.70146 C47.31559,7.72996 49.24979,9.48366 51.44999,11.53566 L51.44999,21.67026 C51.44999,24.28846 53.57609,26.41836 56.19619,26.41836 L57.87199,26.41836 L57.87199,44.51966 C57.87199,50.28046 62.39779,62.86416 62.56499,63.32016 C62.57449,63.35626 63.68789,67.14296 62.01019,69.40016 C61.10009,70.62376 59.42429,71.24316 57.02649,71.24316 C55.71739,71.24316 54.76739,70.89166 54.11759,70.16586 C52.96809,68.87956 52.94149,66.58246 53.02889,65.81486 C53.03649,65.74836 53.04029,65.68376 53.04029,65.62106 L53.04029,37.94376 C53.04029,34.37176 50.13519,31.46666 46.56319,31.46666 L40.59719,31.46666 L40.59719,4.52276 C40.59719,2.02616 38.57369,0.00076 36.07519,0.00076 L13.52219,0.00076 C11.02559,0.00076 9.00019,2.02616 9.00019,4.52276 L9.00019,70.66746 C9.00019,73.16596 11.02559,75.18946 13.52219,75.18946 L36.07519,75.18946 C38.57369,75.18946 40.59719,73.16596 40.59719,70.66746 L40.59719,34.70046 L46.56319,34.70046 C48.34919,34.70046 49.80459,36.15396 49.80459,37.94376 L49.80459,65.53936 C49.74379,66.23476 49.52719,69.86756 51.69129,72.30336 C52.97189,73.74736 54.76549,74.47696 57.02649,74.47696 C60.51489,74.47696 63.06659,73.41296 64.61889,71.31346 C67.26179,67.73196 65.72469,62.59056 65.62969,62.29796 L65.62969,62.29796 Z"/></defs><use fill="#00789E" fill-rule="evenodd" xlink:href="#icon-positive-gasoline-a"/></svg>