<svg xmlns="http://www.w3.org/2000/svg" viewBox="0 0 70 70"><title>icon home</title><path d="M70,35A35,35,0,1,1,35,0,35,35,0,0,1,70,35" fill="#005984"/><path d="M55.76,33.28,47.6,25.15V17.81a1.44,1.44,0,0,0-1.44-1.44H43.79a1.44,1.44,0,0,0-1.44,1.44V20l-5.84-5.8a2.12,2.12,0,0,0-3,0L14.24,33.28A1.3,1.3,0,0,0,15,35.34h4.22V55a1.48,1.48,0,0,0,1.45,1.48h9.75A1.37,1.37,0,0,0,31.79,55V45.86a1.44,1.44,0,0,1,1.44-1.44h3.62a1.44,1.44,0,0,1,1.44,1.44V55a1.44,1.44,0,0,0,1.44,1.44h9.57A1.44,1.44,0,0,0,50.75,55l0-19.67H55A1.3,1.3,0,0,0,55.76,33.28ZM29,40.12a1.51,1.51,0,0,1-1.51,1.51H23.65a1.51,1.51,0,0,1-1.51-1.51V36.28a1.51,1.51,0,0,1,1.51-1.51h3.81A1.51,1.51,0,0,1,29,36.28Zm18.32,0a1.51,1.51,0,0,1-1.51,1.51H42a1.51,1.51,0,0,1-1.51-1.51V36.28A1.51,1.51,0,0,1,42,34.77h3.81a1.51,1.51,0,0,1,1.51,1.51Z" fill="#fff"/></svg>