<?xml version="1.0" encoding="UTF-8"?>
<svg width="74px" height="77px" viewBox="0 0 74 77" version="1.1" xmlns="http://www.w3.org/2000/svg" xmlns:xlink="http://www.w3.org/1999/xlink">
    <title>Icon House</title>
    <defs>
        <path d="M73.5418189,34.9015505 L59.1808094,20.4993827 L59.1808094,7.49668762 C59.1808094,6.08784376 58.0461665,4.94575016 56.6465136,4.94575016 L52.4754851,4.94575016 C51.0758321,4.94575016 49.9411893,6.08784376 49.9411893,7.49668762 L49.9411893,11.3762383 L39.6632118,1.10162913 C38.9633717,0.396315169 38.0136609,0 37.0233204,0 C36.0329798,0 35.083269,0.396315169 34.3834289,1.10162913 L0.469623221,34.9015505 C-0.00592833378,35.5283393 -0.129755235,36.3564863 0.1414427,37.0964025 C0.412640635,37.8363187 1.04114116,38.3850854 1.80716823,38.5508082 L9.23406288,38.5508082 L9.23406288,73.3781905 C9.2337715,74.805666 10.3680862,75.971052 11.785958,76 L28.9452525,76 C29.6197159,76.0021795 30.2642581,75.7199139 30.7224297,75.2217046 C31.1806013,74.7234953 31.4105111,74.0548942 31.3563534,73.3781905 L31.3563534,57.1868236 C31.3563534,55.7779797 32.4909962,54.6358861 33.8906492,54.6358861 L40.2615872,54.6358861 C41.6612401,54.6358861 42.795883,55.7779797 42.795883,57.1868236 L42.795883,73.3781905 C42.795883,74.7870343 43.9305259,75.929128 45.3301788,75.929128 L62.1726864,75.929128 C62.8478675,75.9338476 63.4970061,75.6671739 63.976092,75.1882678 C64.4551778,74.7093617 64.7245977,74.0578217 64.7245815,73.3781905 L64.7245815,38.5330934 L72.2042739,38.5330934 C72.9641311,38.364606 73.586834,37.8189573 73.8573026,37.084613 C74.1277713,36.3502688 74.0089272,35.5278998 73.5418189,34.9015505 L73.5418189,34.9015505 Z M26.4461553,47.0185034 C26.4461553,48.4958327 25.2563561,49.6934448 23.7886645,49.6934448 L17.0305423,49.6934448 C15.5628507,49.6934448 14.3730516,48.4958327 14.3730516,47.0185034 L14.3730516,40.2160035 C14.3730516,39.506565 14.6530364,38.8261832 15.1514126,38.3245343 C15.6497888,37.8228855 16.325732,37.5410621 17.0305423,37.5410621 L23.7358667,37.5410621 C24.44978,37.5267825 25.1393667,37.8022893 25.649221,38.3054941 C26.1590753,38.808699 26.4462962,39.4972603 26.4461553,40.2160035 L26.4461553,47.0185034 Z M58.6880296,47.0185034 C58.6880296,48.4958327 57.4982305,49.6934448 56.0305389,49.6934448 L49.3252146,49.6934448 C47.857523,49.6934448 46.6677238,48.4958327 46.6677238,47.0185034 L46.6677238,40.2160035 C46.6677238,38.7386742 47.857523,37.5410621 49.3252146,37.5410621 L56.0305389,37.5410621 C57.4982305,37.5410621 58.6880296,38.7386742 58.6880296,40.2160035 L58.6880296,47.0185034 Z" id="path-1"></path>
    </defs>
    <g id="RCT---Emissions-Calculator-" stroke="none" stroke-width="1" fill="none" fill-rule="evenodd">
        <g id="Authenticated–no-error_equivalencies-1" transform="translate(-121.000000, -2605.000000)">
            <g id="Component-Header-Copy" transform="translate(80.000000, 2566.000000)">
                <g id="Icon-House" transform="translate(41.000000, 39.309091)">
                    <mask id="mask-2" fill="white">
                        <use xlink:href="#path-1"></use>
                    </mask>
                    <use id="Mask" fill="#FFFFFF" fill-rule="nonzero" xlink:href="#path-1"></use>
                    <g id="Icon-Color" mask="url(#mask-2)" fill="#00789E">
                        <g transform="translate(-1.000000, 0.000000)" id="Rectangle">
                            <rect x="0" y="0" width="76" height="76"></rect>
                        </g>
                    </g>
                </g>
            </g>
        </g>
    </g>
</svg>