<svg xmlns="http://www.w3.org/2000/svg" viewBox="0 0 64 64"><path d="M28.342,19.376h-1.081L26.876,.11h1.098c2.234-.042,4.077,1.734,4.12,3.967l.216,11.177v.002c.042,2.234-1.734,4.079-3.967,4.12Zm-3.906,16.456c6.299,15.532,12.52,11.533,12.52,11.533l14.172,13.043s-17.335,15.964-36.294-19.42C-1.669-1.11,24.174,.003,24.174,.003l.262,19.249s-7.379,1.513,0,16.58Zm20.702,8.322l8.244,7.64s.008,.008,.012,.011c1.629,1.527,1.715,4.088,.188,5.718l-.726,.803-14.172-13.17,.726-.801s.008-.008,.011-.012c1.525-1.632,4.085-1.715,5.717-.188Z" fill-rule="evenodd"/></svg>