<?xml version="1.0" encoding="UTF-8"?>
<svg width="84px" height="84px" viewBox="0 0 84 84" version="1.1" xmlns="http://www.w3.org/2000/svg" xmlns:xlink="http://www.w3.org/1999/xlink">
    <title>Group 26</title>
    <defs>
        <path d="M44.3510583,0 C47.1409396,0 49.4021683,2.2612287 49.4021683,5.05110996 L49.4021683,78.94889 C49.4021683,81.7387713 47.1409396,84 44.3510583,84 L5.05110996,84 C2.2612287,84 -4.61852778e-14,81.7387713 -4.61852778e-14,78.94889 L-4.61852778e-14,5.05110996 C-4.61852778e-14,2.2612287 2.2612287,0 5.05110996,0 Z M43.2318018,5.71399071 L6.1683015,5.71399071 L6.1683015,65.8564791 L43.2318018,65.8564791 L43.2318018,5.71399071 Z" id="path-1"></path>
        <path d="M14.8032,0.5148 C15.2014857,0.729657143 15.3803429,1.2068 15.2220571,1.63022857 L12.3563429,9.27708571 L17.9414857,9.27765714 C18.3169143,9.28565714 18.6043429,9.46222857 18.7626286,9.7668 C18.9209143,10.0730857 18.8917714,10.4428 18.6883429,10.7205143 L9.68148571,22.9970857 C9.50605714,23.2376571 9.2312,23.3679429 8.95062857,23.3679429 C8.80491429,23.3679429 8.65691429,23.3325143 8.52148571,23.2599429 C8.12262857,23.0450857 7.94434286,22.5696571 8.10091429,22.1456571 L11.1877714,13.8250857 L5.85862857,13.8250857 C5.51748571,13.8250857 5.20434286,13.6325143 5.05005714,13.3279429 C4.89577143,13.0228 4.92605714,12.6565143 5.12891429,12.3816571 L13.6420571,0.776514286 C13.9089143,0.4108 14.4043429,0.300514286 14.8032,0.5148 Z M22.6398857,19.0580571 C23.0233143,19.0580571 23.3341714,19.3689143 23.3341714,19.7523429 C23.3341714,20.1357714 23.0233143,20.4466286 22.6398857,20.4466286 L15.9850286,20.4466286 C15.6021714,20.4466286 15.2913143,20.1357714 15.2913143,19.7523429 C15.2913143,19.3689143 15.6021714,19.0580571 15.9850286,19.0580571 Z M4.02171429,-3.55271368e-15 C4.40514286,-3.55271368e-15 4.716,0.310857143 4.716,0.694285714 L4.716,3.32685714 L7.34857143,3.32685714 C7.732,3.32685714 8.04285714,3.63771429 8.04285714,4.02114286 C8.04285714,4.40457143 7.732,4.71542857 7.34857143,4.71542857 L4.716,4.71542857 L4.716,7.34857143 C4.716,7.732 4.40514286,8.04285714 4.02171429,8.04285714 C3.63828571,8.04285714 3.32742857,7.732 3.32742857,7.34857143 L3.32742857,4.71542857 L0.693714286,4.71542857 C0.310857143,4.71542857 6.83897383e-14,4.40457143 6.83897383e-14,4.02114286 C6.83897383e-14,3.63771429 0.310857143,3.32685714 0.693714286,3.32685714 L3.32742857,3.32685714 L3.32742857,0.694285714 C3.32742857,0.310857143 3.63828571,-3.55271368e-15 4.02171429,-3.55271368e-15 Z" id="path-3"></path>
    </defs>
    <g id="RCT---Emissions-Calculator-" stroke="none" stroke-width="1" fill="none" fill-rule="evenodd">
        <g id="Authenticated–no-error_equivalencies-3" transform="translate(-1078.000000, -859.000000)">
            <g id="Group-28" transform="translate(80.000000, 766.000000)">
                <g id="Group-32" transform="translate(423.000000, 93.000000)">
                    <g id="Group-26" transform="translate(575.000000, 0.000000)">
                        <g id="Icons/base/nature/tree" transform="translate(17.684211, 0.000000)">
                            <mask id="mask-2" fill="white">
                                <use xlink:href="#path-1"></use>
                            </mask>
                            <use id="Mask" fill="#06ABC8" xlink:href="#path-1"></use>
                            <g id="Icon-Color" mask="url(#mask-2)" fill="#00789E">
                                <g transform="translate(-17.684211, 0.000000)" id="Rectangle">
                                    <rect x="0" y="0" width="84" height="84"></rect>
                                </g>
                            </g>
                        </g>
                        <g id="Icons/base/nature/tree-Copy-2" transform="translate(30.315904, 25.571314)">
                            <mask id="mask-4" fill="white">
                                <use xlink:href="#path-3"></use>
                            </mask>
                            <use id="Mask" fill="#06ABC8" xlink:href="#path-3"></use>
                            <g id="Icon-Color" mask="url(#mask-4)" fill="#00789E">
                                <g transform="translate(-0.315904, -0.571314)" id="Rectangle">
                                    <rect x="0" y="0" width="24" height="24"></rect>
                                </g>
                            </g>
                        </g>
                        <circle id="Oval" fill="#FFFFFF" cx="42" cy="75" r="3"></circle>
                    </g>
                </g>
            </g>
        </g>
    </g>
</svg>