<?xml version="1.0" encoding="UTF-8"?>
<svg width="58px" height="65px" viewBox="0 0 58 65" version="1.1" xmlns="http://www.w3.org/2000/svg" xmlns:xlink="http://www.w3.org/1999/xlink">
    <title>20FE17A6-A7FD-47D9-9D10-6B33C90DE626@1x</title>
    <defs>
        <path d="M55.3110899,35.1264 L42.4886899,37.4592 L32.8790899,31.904 L42.5142899,26.3472 L55.3158899,28.6768 C56.0422899,28.8096 56.7382899,28.3328 56.8694899,27.6128 L57.1638899,26.0048 C57.2934899,25.2848 56.8118899,24.5936 56.0870899,24.4608 L48.2566899,23.0352 L56.1126899,18.504 C56.7510899,18.1376 56.9718899,17.3232 56.6054899,16.6896 L55.7878899,15.2752 C55.4214899,14.6384 54.6070899,14.4256 53.9686899,14.792 L46.0950899,19.3344 L48.7862899,11.8144 C49.0326899,11.1184 48.6758899,10.3568 47.9846899,10.1088 L46.4454899,9.56 C45.7558899,9.3136 44.9958899,9.6784 44.7478899,10.3712 L40.3574899,22.6432 L30.7318899,28.1952 L30.7366899,17.112 L39.1670899,7.1744 C39.6438899,6.6144 39.5782899,5.7728 39.0182899,5.2992 L37.7750899,4.24 C37.2150899,3.7664 36.3782899,3.8368 35.8998899,4.4016 L30.7398899,10.4832 L30.7446899,1.3344 C30.7446899,0.5968 30.1494899,-3.55271368e-15 29.4166899,-3.55271368e-15 L27.7830899,-3.55271368e-15 C27.0502899,-3.55271368e-15 26.4566899,0.5968 26.4566899,1.3344 L26.4534899,10.48 L21.2966899,4.4016 C20.8182899,3.8368 19.9798899,3.7664 19.4214899,4.24 L18.1766899,5.2992 C17.6182899,5.7728 17.5526899,6.6144 18.0294899,7.1744 L26.4502899,17.1024 L26.4454899,28.1856 L16.8326899,22.6288 L12.4422899,10.3616 C12.1942899,9.6688 11.4342899,9.304 10.7446899,9.552 L9.20548986,10.0992 C8.51428986,10.3472 8.15748986,11.1088 8.40388986,11.8048 L11.0918899,19.312 L3.17348986,14.736 C2.53508986,14.3664 1.72068986,14.5824 1.35428986,15.2176 L0.536689862,16.6304 C0.170289862,17.2672 0.391089862,18.08 1.02948986,18.448 L8.94628986,23.024 L1.10308986,24.4512 C0.378289862,24.584 -0.103310138,25.2752 0.0278898623,25.9952 L0.322289862,27.6032 C0.453489862,28.3232 1.14948986,28.8 1.87428986,28.6672 L14.6790899,26.3376 L24.3062899,31.9008 L14.6870899,37.448 L1.86948986,35.1168 C1.14468986,34.984 0.447089862,35.4608 0.315889862,36.1808 L0.0214898623,37.7888 C-0.109710138,38.5088 0.373489862,39.2 1.09828986,39.3328 L8.94468986,40.76 L1.02148986,45.3312 C0.383089862,45.6976 0.162289862,46.5104 0.527089862,47.1472 L1.34468986,48.56 C1.71108986,49.1968 2.52548986,49.4112 3.16388986,49.0416 L11.0854899,44.4752 L8.39908986,51.9792 C8.15268986,52.6736 8.50948986,53.4368 9.20068986,53.6832 L10.7398899,54.232 C11.4294899,54.4784 12.1894899,54.1152 12.4374899,53.4224 L16.8214899,41.1648 L26.4422899,35.6176 L26.4374899,46.76 L18.0182899,56.6832 C17.5414899,57.2448 17.6070899,58.0864 18.1654899,58.56 L19.4118899,59.6192 C19.9686899,60.0928 20.8070899,60.0224 21.2854899,59.4576 L26.4342899,53.3888 L26.4310899,62.4576 C26.4310899,63.1952 27.0230899,63.7936 27.7558899,63.7936 L29.3894899,63.7936 C30.1222899,63.7936 30.7158899,63.1952 30.7158899,62.4576 L30.7206899,53.3664 L35.8886899,59.4576 C36.3670899,60.0224 37.2054899,60.0928 37.7638899,59.6192 L39.0086899,58.56 C39.5670899,58.0864 39.6326899,57.2448 39.1558899,56.6832 L30.7238899,46.744 L30.7286899,35.6128 L40.3590899,41.1792 L44.7430899,53.4304 C44.9910899,54.1248 45.7510899,54.488 46.4406899,54.2416 L47.9798899,53.6928 C48.6710899,53.4464 49.0278899,52.6832 48.7814899,51.9888 L46.0998899,44.496 L53.9494899,49.032 C54.5894899,49.4032 55.4038899,49.1872 55.7702899,48.5536 L56.5862899,47.1376 C56.9526899,46.5024 56.7318899,45.6896 56.0934899,45.3216 L48.2214899,40.7712 L56.0822899,39.3424 C56.8070899,39.2096 57.2886899,38.5184 57.1574899,37.7984 L56.8630899,36.1904 C56.7318899,35.4704 56.0358899,34.9936 55.3110899,35.1264" id="path-1"></path>
    </defs>
    <g id="Home---external" stroke="none" stroke-width="1" fill="none" fill-rule="evenodd">
        <g id="Home-Copy-5" transform="translate(-339.000000, -585.000000)">
            <g id="Group-Copy" transform="translate(240.000000, 550.000000)">
                <g id="Group-4" transform="translate(96.000000, 29.000000)">
                    <g id="Icons/base/environment/summer" transform="translate(3.367731, 6.499680)">
                        <mask id="mask-2" fill="#FFFFFF">
                            <use xlink:href="#path-1"></use>
                        </mask>
                        <use id="Mask" fill="#FFFFFF" xlink:href="#path-1"></use>
                        <g id="Icon-Color" mask="url(#mask-2)" fill="#FFFFFF">
                            <g transform="translate(-3.367731, 0.000320)" id="Rectangle">
                                <rect x="0" y="0" width="64" height="64"></rect>
                            </g>
                        </g>
                    </g>
                </g>
            </g>
        </g>
    </g>
</svg>
