<svg xmlns="http://www.w3.org/2000/svg" viewBox="0 0 64 64"><path fill="#fff" d="M32,0C14.327,0,0,14.327,0,32s14.327,32,32,32,32-14.327,32-32S49.673,0,32,0Zm20.33,16.868c-17.725,16.803-24.12,33.405-24.184,33.574-.289,.768-.964,1.325-1.773,1.464-.129,.022-.26,.033-.392,.034-.682,0-1.329-.301-1.768-.822l-11.877-14.074c-.824-.977-.7-2.437,.276-3.261,.827-.698,2.027-.729,2.889-.076l8.915,6.749c13.66-18.598,24.471-26.771,24.938-27.121,1.018-.772,2.47-.573,3.242,.445,.718,.946,.603,2.282-.266,3.092v-.003Z"/></svg>