<svg xmlns="http://www.w3.org/2000/svg" xmlns:xlink="http://www.w3.org/1999/xlink" viewBox="0 0 76 76"><defs><path id="icon-positive-tree-leaf-a" d="M68.5718977,32.0917953 C71.1329209,34.8401674 72.8632465,39.6299349 72.8632465,43.6826791 C72.8632465,52.1805395 65.9737581,59.0682605 57.4776651,59.0682605 C53.4319907,59.0682605 49.761014,57.4952372 47.0161767,54.9430512 C50.201107,50.2204465 55.293107,45.6551442 57.8117116,43.7074233 C58.5434326,43.1400744 58.8120837,42.1573767 58.4638977,41.2984 C58.1174791,40.4411907 57.2461302,39.9197953 56.325293,40.0170047 C51.7052,40.5154233 46.9560837,43.7851907 43.8878047,46.3250047 C43.0588744,33.122214 40.9609209,18.3393302 40.9379442,18.1749581 C40.8071535,17.2717953 40.1019442,16.5577488 39.197014,16.4234233 C38.297386,16.2890977 37.4083628,16.7610047 37.0195256,17.5881674 C35.8583163,20.0537488 35.4942233,29.5130977 35.3828744,36.1851907 C30.077014,30.9818419 25.5806419,30.5134698 24.149014,30.5134698 C23.7866884,30.5134698 23.5940372,30.5399814 23.5940372,30.5399814 C22.6926419,30.6654698 21.9609209,31.3706791 21.8195256,32.270307 C21.6781302,33.1681674 22.1217581,34.0589581 22.9436186,34.4566326 C23.3660372,34.6634233 33.3078977,39.6440744 34.0272465,53.4849116 C31.2046419,56.894307 26.9398047,59.0682605 22.1659442,59.0682605 C13.6680837,59.0682605 6.77682791,52.1787721 6.77682791,43.6791442 C6.77682791,39.6758884 8.30566512,36.0296558 10.8118977,33.2918884 L11.4145953,32.6732837 C9.91226977,30.2960744 9.03915349,27.4787721 9.03915349,24.4564465 C9.03915349,15.9568186 15.9304093,9.06909767 24.4282698,9.06909767 C25.0185953,9.06909767 25.6000837,9.10091163 26.1727349,9.16453953 L27.0741302,9.29533023 C29.5520837,4.80602791 34.3312465,1.76779535 39.8191535,1.76779535 C44.8404558,1.76779535 49.2678977,4.31114419 51.8837116,8.18184186 L52.5641767,9.29533023 C53.4231535,9.14509767 54.3068744,9.06909767 55.2065023,9.06909767 C63.7061302,9.06909767 70.597386,15.9568186 70.597386,24.4564465 C70.597386,27.2348651 69.8603628,29.8418419 68.5718977,32.0917953 Z M42.1569488,62.3972372 C43.597414,70.3666326 47.4398326,72.4504465 47.4398326,72.4504465 C45.1669023,72.9294233 42.2859721,71.0258884 40.5167628,69.6048651 C40.3011349,71.4518419 39.8469023,73.8697023 38.8889488,75.1033767 C37.9327628,73.8697023 37.4802977,71.4500744 37.2646698,69.6048651 C35.4954605,71.0258884 32.6145302,72.9294233 30.3416,72.4504465 C30.3416,72.4504465 36.845786,68.9190977 36.1034605,53.4946326 C35.3593674,38.0648651 23.8356465,32.5928651 23.8356465,32.5928651 C23.8356465,32.5928651 29.8962047,31.8788186 36.9571349,41.1048651 C37.1056,41.2975163 37.2540651,41.4972372 37.4042977,41.700493 C37.4042977,41.700493 37.4042977,21.6276558 38.8907163,18.4674698 C38.8907163,18.4674698 41.4923907,36.6827256 42.0509023,50.8081209 C42.0509023,50.8081209 49.6703442,42.8157488 56.5474605,42.0716558 C56.5474605,42.0716558 41.785786,53.4751907 42.1569488,62.3972372 Z M19.8016372,69.6965953 C21.1554977,69.3837581 20.9328,70.0253395 20.9328,70.0253395 C20.8868465,70.7058047 19.9430326,70.7800372 19.9430326,70.7800372 C18.8118698,70.9956651 17.4403349,71.0681302 15.704707,70.9002233 C15.704707,70.9002233 3.84693953,77.2082233 4.00247442,57.7027349 C4.00247442,57.7027349 4.65112558,60.8045953 11.8181023,61.3737116 C16.9330791,61.7802233 17.0762419,69.0868279 17.0762419,69.0868279 C17.0762419,69.0868279 11.9930791,69.0444093 7.85373023,65.1472 C7.85373023,65.1472 7.7300093,64.9863628 7.63456744,65.0464558 C7.54089302,65.1065488 7.65931163,65.2903628 7.65931163,65.2903628 C8.97428837,67.1921302 12.7354047,71.3279442 19.8016372,69.6965953 Z"/></defs><use fill="#00789E" fill-rule="evenodd" xlink:href="#icon-positive-tree-leaf-a"/></svg>