<svg xmlns="http://www.w3.org/2000/svg" viewBox="0 0 64 64"><path d="M32,0C14.327,0,0,14.327,0,32s14.327,32,32,32,32-14.327,32-32S49.673,0,32,0Zm14.554,45.852l-.731,.731c-.771,.769-2.018,.769-2.789,0l-11.063-11.063-11.063,11.063c-.771,.769-2.018,.769-2.789,0l-.731-.731c-.769-.771-.769-2.018,0-2.789l11.063-11.063-11.063-11.063c-.769-.771-.769-2.018,0-2.789l.731-.731c.771-.769,2.018-.769,2.789,0l11.063,11.063,11.063-11.063c.771-.769,2.018-.769,2.789,0l.731,.731c.769,.771,.769,2.018,0,2.789l-11.063,11.063,11.063,11.063c.041-.013,.086,0,.111,.035,.008,.009,.016,.017,.024,.026,.716,.791,.655,2.012-.135,2.727Z"/></svg>